<mxfile host="app.diagrams.net" modified="2021-03-12T20:21:42.656Z" agent="5.0 (Windows NT 10.0; Win64; x64) AppleWebKit/537.36 (KHTML, like Gecko) Chrome/88.0.4324.190 Safari/537.36" etag="fJoN6wZR3u-hqdDmx2-0" version="14.4.8" type="github">
  <diagram id="iL3k7XcaUQwhEXji2diZ" name="Page-1">
    <mxGraphModel dx="1038" dy="548" grid="1" gridSize="10" guides="1" tooltips="1" connect="1" arrows="1" fold="1" page="1" pageScale="1" pageWidth="850" pageHeight="1100" math="0" shadow="0">
      <root>
        <mxCell id="0" />
        <mxCell id="1" parent="0" />
        <mxCell id="aNzbc31fKJ_Hpfi3j9VX-1" value="t: Telepes" style="html=1;" parent="1" vertex="1">
          <mxGeometry x="250" y="30" width="110" height="50" as="geometry" />
        </mxCell>
        <mxCell id="aNzbc31fKJ_Hpfi3j9VX-2" value="e: RobotEpito" style="html=1;" parent="1" vertex="1">
          <mxGeometry x="120" y="340" width="110" height="50" as="geometry" />
        </mxCell>
        <mxCell id="aNzbc31fKJ_Hpfi3j9VX-3" value="Controller" style="html=1;" parent="1" vertex="1">
          <mxGeometry x="50" y="210" width="110" height="50" as="geometry" />
        </mxCell>
        <mxCell id="aNzbc31fKJ_Hpfi3j9VX-4" value="" style="html=1;verticalAlign=bottom;endArrow=none;endFill=0;" parent="1" source="aNzbc31fKJ_Hpfi3j9VX-3" target="aNzbc31fKJ_Hpfi3j9VX-1" edge="1">
          <mxGeometry width="80" relative="1" as="geometry">
            <mxPoint x="380" y="180" as="sourcePoint" />
            <mxPoint x="460" y="180" as="targetPoint" />
          </mxGeometry>
        </mxCell>
        <mxCell id="aNzbc31fKJ_Hpfi3j9VX-5" value="" style="html=1;verticalAlign=bottom;endArrow=none;endFill=0;" parent="1" source="aNzbc31fKJ_Hpfi3j9VX-3" target="aNzbc31fKJ_Hpfi3j9VX-2" edge="1">
          <mxGeometry width="80" relative="1" as="geometry">
            <mxPoint x="209.23076923076928" y="270" as="sourcePoint" />
            <mxPoint x="350.7692307692307" y="190" as="targetPoint" />
          </mxGeometry>
        </mxCell>
        <mxCell id="aNzbc31fKJ_Hpfi3j9VX-6" value="1: &amp;lt;&amp;lt;create&amp;gt;&amp;gt; Telepes(a)" style="html=1;verticalAlign=bottom;endArrow=block;" parent="1" edge="1">
          <mxGeometry x="-1" y="28" width="80" relative="1" as="geometry">
            <mxPoint x="160" y="150" as="sourcePoint" />
            <mxPoint x="210" y="110" as="targetPoint" />
            <mxPoint x="-3" y="2" as="offset" />
          </mxGeometry>
        </mxCell>
        <mxCell id="aNzbc31fKJ_Hpfi3j9VX-8" value="a: Aszteroida" style="html=1;" parent="1" vertex="1">
          <mxGeometry x="410" y="290" width="110" height="50" as="geometry" />
        </mxCell>
        <mxCell id="aNzbc31fKJ_Hpfi3j9VX-12" value="" style="html=1;verticalAlign=bottom;endArrow=none;endFill=0;" parent="1" source="aNzbc31fKJ_Hpfi3j9VX-3" target="aNzbc31fKJ_Hpfi3j9VX-8" edge="1">
          <mxGeometry width="80" relative="1" as="geometry">
            <mxPoint x="160" y="230" as="sourcePoint" />
            <mxPoint x="300" y="130" as="targetPoint" />
          </mxGeometry>
        </mxCell>
        <mxCell id="aNzbc31fKJ_Hpfi3j9VX-13" value="2: &amp;lt;&amp;lt;create&amp;gt;&amp;gt; Aszteroida()" style="html=1;verticalAlign=bottom;endArrow=block;" parent="1" edge="1">
          <mxGeometry x="0.2877" y="10" width="80" relative="1" as="geometry">
            <mxPoint x="210" y="250" as="sourcePoint" />
            <mxPoint x="290" y="270" as="targetPoint" />
            <mxPoint as="offset" />
          </mxGeometry>
        </mxCell>
        <mxCell id="aNzbc31fKJ_Hpfi3j9VX-14" value="3: &amp;lt;&amp;lt;create&amp;gt;&amp;gt; RobotEpito()" style="html=1;verticalAlign=bottom;endArrow=block;" parent="1" edge="1">
          <mxGeometry x="0.5882" y="19" width="80" relative="1" as="geometry">
            <mxPoint x="140" y="280" as="sourcePoint" />
            <mxPoint x="170" y="330" as="targetPoint" />
            <mxPoint as="offset" />
          </mxGeometry>
        </mxCell>
        <mxCell id="aNzbc31fKJ_Hpfi3j9VX-16" value="4: HajoErkezik(t)" style="html=1;verticalAlign=bottom;endArrow=block;" parent="1" edge="1">
          <mxGeometry x="0.6154" y="33" width="80" relative="1" as="geometry">
            <mxPoint x="360" y="110" as="sourcePoint" />
            <mxPoint x="400" y="170" as="targetPoint" />
            <mxPoint as="offset" />
          </mxGeometry>
        </mxCell>
        <mxCell id="VtVtpAuPuRpJdiW_7L0x-1" value="" style="endArrow=none;html=1;" edge="1" parent="1" source="aNzbc31fKJ_Hpfi3j9VX-8" target="aNzbc31fKJ_Hpfi3j9VX-1">
          <mxGeometry width="50" height="50" relative="1" as="geometry">
            <mxPoint x="400" y="310" as="sourcePoint" />
            <mxPoint x="450" y="260" as="targetPoint" />
          </mxGeometry>
        </mxCell>
        <mxCell id="VtVtpAuPuRpJdiW_7L0x-5" value="5: MezoBeallit(a)" style="html=1;verticalAlign=bottom;endArrow=block;" edge="1" parent="1">
          <mxGeometry x="-0.76" y="-31" width="80" relative="1" as="geometry">
            <mxPoint x="450" y="250" as="sourcePoint" />
            <mxPoint x="410" y="190" as="targetPoint" />
            <mxPoint as="offset" />
          </mxGeometry>
        </mxCell>
      </root>
    </mxGraphModel>
  </diagram>
</mxfile>
